<svg width="101" height="159" viewBox="0 0 101 159" fill="none" xmlns="http://www.w3.org/2000/svg">
<g id="Group">
<path id="Vector" d="M42.8625 113.658H39.8113L42.8625 123.3H68.7883L71.8377 113.658H68.7883H42.8625Z" fill="white"/>
<path id="Vector_2" d="M47.2302 158.867H64.6806L66.7335 152.374H45.1772L47.2302 158.867Z" fill="white"/>
<path id="Vector_3" d="M43.9654 127.13L41.1758 131.539L43.9654 135.951H67.6831L70.473 131.539L67.6831 127.13H43.9654Z" fill="white"/>
<path id="Vector_4" d="M43.9654 139.338L41.1758 143.745L43.9654 148.156H67.6831L70.473 143.745L67.6831 139.338H43.9654Z" fill="white"/>
<path id="Vector_5" d="M100.551 14.3523L91.5807 11.5696C91.3473 11.5107 91.156 11.2898 91.1056 11.0142L88.7388 0.524694C88.6762 0.218752 88.447 0 88.175 0C87.9055 0 87.6739 0.218752 87.6115 0.525004L85.2466 11.0145C85.1923 11.2898 85.0031 11.511 84.7675 11.57L75.7987 14.3526C75.535 14.4137 75.3501 14.6821 75.3501 14.9999C75.3501 15.3151 75.5353 15.5882 75.7987 15.6471L84.7675 18.4295C85.0031 18.4862 85.192 18.7096 85.2466 18.9852L87.6115 29.4747C87.6739 29.7831 87.9055 29.9997 88.175 29.9997C88.447 29.9997 88.6762 29.7831 88.7388 29.4747L91.1056 18.9852C91.156 18.7096 91.3473 18.4862 91.5807 18.4295L100.551 15.6471C100.813 15.5882 101 15.3151 101 14.9999C101 14.6818 100.813 14.4134 100.551 14.3523Z" fill="white"/>
<path id="Vector_6" d="M83.3301 37.3866C71.1814 27.1865 60.8057 35.1854 55.6692 35.1854C50.5348 35.1854 40.1573 27.1865 28.0084 37.3866C13.4181 49.6391 17.1581 79.0993 27.9824 95.3397C36.1077 107.529 49.5848 108.159 55.6692 108.159C61.7558 108.159 75.231 107.529 83.3582 95.3397C94.1788 79.0993 97.9225 49.6388 83.3301 37.3866ZM54.0835 62.9296L45.8918 65.4696C45.6764 65.5236 45.5034 65.7262 45.4572 65.9757L43.2974 75.5589C43.2391 75.8391 43.0297 76.0346 42.7822 76.0346C42.5347 76.0346 42.3232 75.8391 42.267 75.5589L40.1093 65.9757C40.057 65.7262 39.8859 65.5236 39.6726 65.4696L31.4788 62.9296C31.2395 62.8753 31.0702 62.6259 31.0702 62.3364C31.0702 62.0515 31.2392 61.7996 31.4788 61.7456L39.6726 59.2053C39.8859 59.1513 40.057 58.9511 40.1093 58.697L42.267 49.1188C42.3232 48.8408 42.5347 48.641 42.7822 48.641C43.0297 48.641 43.2391 48.8411 43.2974 49.1188L45.4572 58.697C45.5034 58.9515 45.6764 59.1513 45.8918 59.2053L54.0835 61.7456C54.321 61.7996 54.4921 62.0515 54.4921 62.3364C54.4918 62.6259 54.321 62.8753 54.0835 62.9296Z" fill="white"/>
<path id="Vector_7" d="M19.8591 34.3777C19.8591 34.1354 19.7183 33.921 19.5132 33.8763L12.5671 31.7226C12.388 31.6779 12.237 31.5038 12.1988 31.2919L10.3653 23.1705C10.3168 22.9328 10.1398 22.7659 9.9305 22.7659C9.72118 22.7659 9.5421 22.9328 9.49381 23.1705L7.66244 31.2919C7.62211 31.5038 7.47328 31.6779 7.2942 31.7226L0.348075 33.8763C0.142731 33.921 0 34.1354 0 34.3777C0 34.625 0.142731 34.832 0.348075 34.8816L7.2942 37.0307C7.47328 37.0778 7.62211 37.2519 7.66244 37.4638L9.49381 45.5874C9.5421 45.8251 9.72144 45.9923 9.9305 45.9923C10.1398 45.9923 10.3168 45.8254 10.3653 45.5874L12.1988 37.4638C12.237 37.2519 12.388 37.0778 12.5671 37.0307L19.5132 34.8816C19.7183 34.832 19.8591 34.6247 19.8591 34.3777Z" fill="white"/>
</g>
</svg>
